%TF.GenerationSoftware,KiCad,Pcbnew,5.1.6-c6e7f7d~87~ubuntu20.04.1*%
%TF.CreationDate,2020-08-21T11:40:56+01:00*%
%TF.ProjectId,Ultra96-IO-Mezzanine,556c7472-6139-4362-9d49-4f2d4d657a7a,A*%
%TF.SameCoordinates,Original*%
%TF.FileFunction,Legend,Top*%
%TF.FilePolarity,Positive*%
%FSLAX46Y46*%
G04 Gerber Fmt 4.6, Leading zero omitted, Abs format (unit mm)*
G04 Created by KiCad (PCBNEW 5.1.6-c6e7f7d~87~ubuntu20.04.1) date 2020-08-21 11:40:56*
%MOMM*%
%LPD*%
G01*
G04 APERTURE LIST*
%ADD10C,0.120000*%
%ADD11C,0.127000*%
%ADD12C,0.200000*%
%ADD13C,0.150000*%
%ADD14C,0.015000*%
G04 APERTURE END LIST*
D10*
%TO.C,REF\u002A\u002A*%
X183286000Y-104000000D02*
G75*
G03*
X183286000Y-104000000I-2286000J0D01*
G01*
X106286000Y-104000000D02*
G75*
G03*
X106286000Y-104000000I-2286000J0D01*
G01*
X183286000Y-135500000D02*
G75*
G03*
X183286000Y-135500000I-2286000J0D01*
G01*
X106286000Y-135500000D02*
G75*
G03*
X106286000Y-135500000I-2286000J0D01*
G01*
%TO.C,P1*%
X107540000Y-114400000D02*
X107540000Y-113070000D01*
X108870000Y-114400000D02*
X107540000Y-114400000D01*
X107540000Y-111800000D02*
X107540000Y-109200000D01*
X110140000Y-111800000D02*
X107540000Y-111800000D01*
X110140000Y-114400000D02*
X110140000Y-111800000D01*
X107540000Y-109200000D02*
X158460000Y-109200000D01*
X110140000Y-114400000D02*
X158460000Y-114400000D01*
X158460000Y-114400000D02*
X158460000Y-109200000D01*
D11*
%TO.C,U7*%
X146301600Y-124900400D02*
X146401600Y-124900400D01*
X150901600Y-124900400D02*
X150801600Y-124900400D01*
X146301600Y-121300400D02*
X146401600Y-121300400D01*
X150901600Y-121300400D02*
X150801600Y-121300400D01*
X146301600Y-124900400D02*
X146301600Y-124116400D01*
X150901600Y-124900400D02*
X150901600Y-123800400D01*
X146301600Y-121300400D02*
X146301600Y-122084400D01*
X150901600Y-121300400D02*
X150901600Y-122400400D01*
D12*
X146691600Y-125645400D02*
G75*
G03*
X146691600Y-125645400I-100000J0D01*
G01*
D11*
%TO.C,U6*%
X134301600Y-124900400D02*
X134401600Y-124900400D01*
X138901600Y-124900400D02*
X138801600Y-124900400D01*
X134301600Y-121300400D02*
X134401600Y-121300400D01*
X138901600Y-121300400D02*
X138801600Y-121300400D01*
X134301600Y-124900400D02*
X134301600Y-124116400D01*
X138901600Y-124900400D02*
X138901600Y-123800400D01*
X134301600Y-121300400D02*
X134301600Y-122084400D01*
X138901600Y-121300400D02*
X138901600Y-122400400D01*
D12*
X134691600Y-125645400D02*
G75*
G03*
X134691600Y-125645400I-100000J0D01*
G01*
D11*
%TO.C,U5*%
X122301600Y-124900400D02*
X122401600Y-124900400D01*
X126901600Y-124900400D02*
X126801600Y-124900400D01*
X122301600Y-121300400D02*
X122401600Y-121300400D01*
X126901600Y-121300400D02*
X126801600Y-121300400D01*
X122301600Y-124900400D02*
X122301600Y-124116400D01*
X126901600Y-124900400D02*
X126901600Y-123800400D01*
X122301600Y-121300400D02*
X122301600Y-122084400D01*
X126901600Y-121300400D02*
X126901600Y-122400400D01*
D12*
X122691600Y-125645400D02*
G75*
G03*
X122691600Y-125645400I-100000J0D01*
G01*
D11*
%TO.C,U3*%
X110301600Y-124900400D02*
X110401600Y-124900400D01*
X114901600Y-124900400D02*
X114801600Y-124900400D01*
X110301600Y-121300400D02*
X110401600Y-121300400D01*
X114901600Y-121300400D02*
X114801600Y-121300400D01*
X110301600Y-124900400D02*
X110301600Y-124116400D01*
X114901600Y-124900400D02*
X114901600Y-123800400D01*
X110301600Y-121300400D02*
X110301600Y-122084400D01*
X114901600Y-121300400D02*
X114901600Y-122400400D01*
D12*
X110691600Y-125645400D02*
G75*
G03*
X110691600Y-125645400I-100000J0D01*
G01*
D10*
%TO.C,RST*%
X101390000Y-127580000D02*
X101390000Y-127680000D01*
X105790000Y-125880000D02*
X101390000Y-125880000D01*
X101390000Y-129380000D02*
X105790000Y-129380000D01*
X105790000Y-127580000D02*
X105790000Y-127680000D01*
%TO.C,PWR*%
X101460000Y-121330000D02*
X101460000Y-121430000D01*
X105860000Y-119630000D02*
X101460000Y-119630000D01*
X101460000Y-123130000D02*
X105860000Y-123130000D01*
X105860000Y-121330000D02*
X105860000Y-121430000D01*
%TO.C,5v|3v3|1v8*%
X174610000Y-102980000D02*
X173910000Y-102980000D01*
X166610000Y-102980000D02*
X165910000Y-102980000D01*
X172610000Y-102980000D02*
X172410000Y-102980000D01*
X168110000Y-102980000D02*
X167910000Y-102980000D01*
X170910000Y-98890000D02*
X170710000Y-98690000D01*
X169610000Y-98890000D02*
X169810000Y-98690000D01*
X170910000Y-100190000D02*
X170910000Y-98890000D01*
X169810000Y-98690000D02*
X170710000Y-98690000D01*
X169610000Y-98890000D02*
X169610000Y-100190000D01*
X174610000Y-100190000D02*
X165910000Y-100190000D01*
X171110000Y-102980000D02*
X169410000Y-102980000D01*
X175210000Y-101980000D02*
X175210000Y-101190000D01*
X165310000Y-101190000D02*
X165310000Y-101980000D01*
%TO.C,R10*%
X153046700Y-106559022D02*
X153046700Y-107076178D01*
X151626700Y-106559022D02*
X151626700Y-107076178D01*
%TO.C,R9*%
X165635878Y-113968800D02*
X165118722Y-113968800D01*
X165635878Y-112548800D02*
X165118722Y-112548800D01*
%TO.C,R8*%
X164522878Y-126186200D02*
X164005722Y-126186200D01*
X164522878Y-124766200D02*
X164005722Y-124766200D01*
%TO.C,R7*%
X166406022Y-118822600D02*
X166923178Y-118822600D01*
X166406022Y-120242600D02*
X166923178Y-120242600D01*
%TO.C,R6*%
X158921122Y-116600100D02*
X159438278Y-116600100D01*
X158921122Y-118020100D02*
X159438278Y-118020100D01*
%TO.C,R5*%
X156110000Y-102616078D02*
X156110000Y-102098922D01*
X157530000Y-102616078D02*
X157530000Y-102098922D01*
%TO.C,R4*%
X153640000Y-102616078D02*
X153640000Y-102098922D01*
X155060000Y-102616078D02*
X155060000Y-102098922D01*
%TO.C,R3*%
X175884778Y-137120900D02*
X175367622Y-137120900D01*
X175884778Y-135700900D02*
X175367622Y-135700900D01*
%TO.C,R2*%
X173403722Y-127306200D02*
X173920878Y-127306200D01*
X173403722Y-128726200D02*
X173920878Y-128726200D01*
%TO.C,R1*%
X174830678Y-132256800D02*
X174313522Y-132256800D01*
X174830678Y-130836800D02*
X174313522Y-130836800D01*
D11*
%TO.C,Q1*%
X164923000Y-114985200D02*
X164923000Y-117985200D01*
X168300000Y-114985200D02*
X168300000Y-117985200D01*
D12*
X165711500Y-118785200D02*
G75*
G03*
X165711500Y-118785200I-100000J0D01*
G01*
D10*
%TO.C,D7*%
X163683000Y-132322500D02*
X163683000Y-135007500D01*
X163683000Y-135007500D02*
X165603000Y-135007500D01*
X165603000Y-135007500D02*
X165603000Y-132322500D01*
%TO.C,D6*%
X151567600Y-145359200D02*
X154252600Y-145359200D01*
X154252600Y-145359200D02*
X154252600Y-143439200D01*
X154252600Y-143439200D02*
X151567600Y-143439200D01*
%TO.C,D5*%
X160825500Y-132271700D02*
X160825500Y-134956700D01*
X160825500Y-134956700D02*
X162745500Y-134956700D01*
X162745500Y-134956700D02*
X162745500Y-132271700D01*
%TO.C,D4*%
X153310000Y-103357500D02*
X153310000Y-100672500D01*
X153310000Y-100672500D02*
X151390000Y-100672500D01*
X151390000Y-100672500D02*
X151390000Y-103357500D01*
%TO.C,D2*%
X161170000Y-101357500D02*
X161170000Y-104042500D01*
X161170000Y-104042500D02*
X163090000Y-104042500D01*
X163090000Y-104042500D02*
X163090000Y-101357500D01*
%TO.C,D1*%
X158450000Y-101357500D02*
X158450000Y-104042500D01*
X158450000Y-104042500D02*
X160370000Y-104042500D01*
X160370000Y-104042500D02*
X160370000Y-101357500D01*
%TO.C,C9*%
X152834278Y-136079500D02*
X152317122Y-136079500D01*
X152834278Y-134659500D02*
X152317122Y-134659500D01*
%TO.C,C8*%
X151060000Y-102098922D02*
X151060000Y-102616078D01*
X149640000Y-102098922D02*
X149640000Y-102616078D01*
%TO.C,C7*%
X154560400Y-125973778D02*
X154560400Y-125456622D01*
X155980400Y-125973778D02*
X155980400Y-125456622D01*
%TO.C,C6*%
X148681378Y-130237500D02*
X148164222Y-130237500D01*
X148681378Y-128817500D02*
X148164222Y-128817500D01*
%TO.C,C5*%
X164099178Y-140549900D02*
X163582022Y-140549900D01*
X164099178Y-139129900D02*
X163582022Y-139129900D01*
%TO.C,C4*%
X178275922Y-131116200D02*
X178793078Y-131116200D01*
X178275922Y-132536200D02*
X178793078Y-132536200D01*
%TO.C,C3*%
X104670000Y-116378922D02*
X104670000Y-116896078D01*
X103250000Y-116378922D02*
X103250000Y-116896078D01*
%TO.C,C2*%
X159509922Y-139129900D02*
X160027078Y-139129900D01*
X159509922Y-140549900D02*
X160027078Y-140549900D01*
%TO.C,C1*%
X174771778Y-124382800D02*
X174254622Y-124382800D01*
X174771778Y-122962800D02*
X174254622Y-122962800D01*
%TO.C,J2*%
X179670000Y-109530000D02*
X181000000Y-109530000D01*
X179670000Y-110860000D02*
X179670000Y-109530000D01*
X179670000Y-112130000D02*
X182330000Y-112130000D01*
X182330000Y-112130000D02*
X182330000Y-129970000D01*
X179670000Y-112130000D02*
X179670000Y-129970000D01*
X179670000Y-129970000D02*
X182330000Y-129970000D01*
%TO.C,U4*%
X153845000Y-133270000D02*
X153845000Y-133745000D01*
X158065000Y-129525000D02*
X157590000Y-129525000D01*
X158065000Y-130000000D02*
X158065000Y-129525000D01*
X158065000Y-133745000D02*
X157590000Y-133745000D01*
X158065000Y-133270000D02*
X158065000Y-133745000D01*
X153845000Y-129525000D02*
X154320000Y-129525000D01*
X153845000Y-130000000D02*
X153845000Y-129525000D01*
%TO.C,UART*%
X165050000Y-155200000D02*
X174450000Y-155200000D01*
X174450000Y-149400000D02*
X174450000Y-151400000D01*
X174450000Y-153300000D02*
X174450000Y-155200000D01*
X165050000Y-149400000D02*
X165050000Y-151400000D01*
X165050000Y-153300000D02*
X165050000Y-155200000D01*
D13*
%TO.C,P3*%
X148750000Y-100000000D02*
X148750000Y-108000000D01*
X109250000Y-100000000D02*
X109250000Y-108000000D01*
X148750000Y-100000000D02*
X109250000Y-100000000D01*
X109250000Y-108000000D02*
X148750000Y-108000000D01*
D10*
%TO.C,PWR*%
X151250000Y-155200000D02*
X160650000Y-155200000D01*
X160650000Y-149400000D02*
X160650000Y-151400000D01*
X160650000Y-153300000D02*
X160650000Y-155200000D01*
X151250000Y-149400000D02*
X151250000Y-151400000D01*
X151250000Y-153300000D02*
X151250000Y-155200000D01*
%TO.C,U2*%
X167640000Y-133225000D02*
X167640000Y-133700000D01*
X171860000Y-129480000D02*
X171385000Y-129480000D01*
X171860000Y-129955000D02*
X171860000Y-129480000D01*
X171860000Y-133700000D02*
X171385000Y-133700000D01*
X171860000Y-133225000D02*
X171860000Y-133700000D01*
X167640000Y-129480000D02*
X168115000Y-129480000D01*
X167640000Y-129955000D02*
X167640000Y-129480000D01*
%TO.C,D3*%
X161440000Y-144670000D02*
X161440000Y-141720000D01*
X158340000Y-142270000D02*
X158340000Y-144670000D01*
%TO.C,U7*%
D14*
X143553980Y-123847304D02*
X144363504Y-123847304D01*
X144458742Y-123799685D01*
X144506361Y-123752066D01*
X144553980Y-123656828D01*
X144553980Y-123466352D01*
X144506361Y-123371114D01*
X144458742Y-123323495D01*
X144363504Y-123275876D01*
X143553980Y-123275876D01*
X143553980Y-122894923D02*
X143553980Y-122228257D01*
X144553980Y-122656828D01*
%TO.C,U6*%
X131553980Y-123847304D02*
X132363504Y-123847304D01*
X132458742Y-123799685D01*
X132506361Y-123752066D01*
X132553980Y-123656828D01*
X132553980Y-123466352D01*
X132506361Y-123371114D01*
X132458742Y-123323495D01*
X132363504Y-123275876D01*
X131553980Y-123275876D01*
X131553980Y-122371114D02*
X131553980Y-122561590D01*
X131601600Y-122656828D01*
X131649219Y-122704447D01*
X131792076Y-122799685D01*
X131982552Y-122847304D01*
X132363504Y-122847304D01*
X132458742Y-122799685D01*
X132506361Y-122752066D01*
X132553980Y-122656828D01*
X132553980Y-122466352D01*
X132506361Y-122371114D01*
X132458742Y-122323495D01*
X132363504Y-122275876D01*
X132125409Y-122275876D01*
X132030171Y-122323495D01*
X131982552Y-122371114D01*
X131934933Y-122466352D01*
X131934933Y-122656828D01*
X131982552Y-122752066D01*
X132030171Y-122799685D01*
X132125409Y-122847304D01*
%TO.C,U5*%
X119553980Y-123847304D02*
X120363504Y-123847304D01*
X120458742Y-123799685D01*
X120506361Y-123752066D01*
X120553980Y-123656828D01*
X120553980Y-123466352D01*
X120506361Y-123371114D01*
X120458742Y-123323495D01*
X120363504Y-123275876D01*
X119553980Y-123275876D01*
X119553980Y-122323495D02*
X119553980Y-122799685D01*
X120030171Y-122847304D01*
X119982552Y-122799685D01*
X119934933Y-122704447D01*
X119934933Y-122466352D01*
X119982552Y-122371114D01*
X120030171Y-122323495D01*
X120125409Y-122275876D01*
X120363504Y-122275876D01*
X120458742Y-122323495D01*
X120506361Y-122371114D01*
X120553980Y-122466352D01*
X120553980Y-122704447D01*
X120506361Y-122799685D01*
X120458742Y-122847304D01*
%TO.C,RST*%
D13*
X102892380Y-130682380D02*
X102559047Y-130206190D01*
X102320952Y-130682380D02*
X102320952Y-129682380D01*
X102701904Y-129682380D01*
X102797142Y-129730000D01*
X102844761Y-129777619D01*
X102892380Y-129872857D01*
X102892380Y-130015714D01*
X102844761Y-130110952D01*
X102797142Y-130158571D01*
X102701904Y-130206190D01*
X102320952Y-130206190D01*
X103273333Y-130634761D02*
X103416190Y-130682380D01*
X103654285Y-130682380D01*
X103749523Y-130634761D01*
X103797142Y-130587142D01*
X103844761Y-130491904D01*
X103844761Y-130396666D01*
X103797142Y-130301428D01*
X103749523Y-130253809D01*
X103654285Y-130206190D01*
X103463809Y-130158571D01*
X103368571Y-130110952D01*
X103320952Y-130063333D01*
X103273333Y-129968095D01*
X103273333Y-129872857D01*
X103320952Y-129777619D01*
X103368571Y-129730000D01*
X103463809Y-129682380D01*
X103701904Y-129682380D01*
X103844761Y-129730000D01*
X104130476Y-129682380D02*
X104701904Y-129682380D01*
X104416190Y-130682380D02*
X104416190Y-129682380D01*
%TO.C,PWR*%
X102176666Y-124432380D02*
X102176666Y-123432380D01*
X102557619Y-123432380D01*
X102652857Y-123480000D01*
X102700476Y-123527619D01*
X102748095Y-123622857D01*
X102748095Y-123765714D01*
X102700476Y-123860952D01*
X102652857Y-123908571D01*
X102557619Y-123956190D01*
X102176666Y-123956190D01*
X103081428Y-123432380D02*
X103319523Y-124432380D01*
X103510000Y-123718095D01*
X103700476Y-124432380D01*
X103938571Y-123432380D01*
X104890952Y-124432380D02*
X104557619Y-123956190D01*
X104319523Y-124432380D02*
X104319523Y-123432380D01*
X104700476Y-123432380D01*
X104795714Y-123480000D01*
X104843333Y-123527619D01*
X104890952Y-123622857D01*
X104890952Y-123765714D01*
X104843333Y-123860952D01*
X104795714Y-123908571D01*
X104700476Y-123956190D01*
X104319523Y-123956190D01*
%TO.C,5v|3v3|1v8*%
X166988095Y-104992380D02*
X166511904Y-104992380D01*
X166464285Y-105468571D01*
X166511904Y-105420952D01*
X166607142Y-105373333D01*
X166845238Y-105373333D01*
X166940476Y-105420952D01*
X166988095Y-105468571D01*
X167035714Y-105563809D01*
X167035714Y-105801904D01*
X166988095Y-105897142D01*
X166940476Y-105944761D01*
X166845238Y-105992380D01*
X166607142Y-105992380D01*
X166511904Y-105944761D01*
X166464285Y-105897142D01*
X167369047Y-105325714D02*
X167607142Y-105992380D01*
X167845238Y-105325714D01*
X168464285Y-106325714D02*
X168464285Y-104897142D01*
X169083333Y-104992380D02*
X169702380Y-104992380D01*
X169369047Y-105373333D01*
X169511904Y-105373333D01*
X169607142Y-105420952D01*
X169654761Y-105468571D01*
X169702380Y-105563809D01*
X169702380Y-105801904D01*
X169654761Y-105897142D01*
X169607142Y-105944761D01*
X169511904Y-105992380D01*
X169226190Y-105992380D01*
X169130952Y-105944761D01*
X169083333Y-105897142D01*
X170035714Y-105325714D02*
X170273809Y-105992380D01*
X170511904Y-105325714D01*
X170797619Y-104992380D02*
X171416666Y-104992380D01*
X171083333Y-105373333D01*
X171226190Y-105373333D01*
X171321428Y-105420952D01*
X171369047Y-105468571D01*
X171416666Y-105563809D01*
X171416666Y-105801904D01*
X171369047Y-105897142D01*
X171321428Y-105944761D01*
X171226190Y-105992380D01*
X170940476Y-105992380D01*
X170845238Y-105944761D01*
X170797619Y-105897142D01*
X172083333Y-106325714D02*
X172083333Y-104897142D01*
X173321428Y-105992380D02*
X172750000Y-105992380D01*
X173035714Y-105992380D02*
X173035714Y-104992380D01*
X172940476Y-105135238D01*
X172845238Y-105230476D01*
X172750000Y-105278095D01*
X173654761Y-105325714D02*
X173892857Y-105992380D01*
X174130952Y-105325714D01*
X174654761Y-105420952D02*
X174559523Y-105373333D01*
X174511904Y-105325714D01*
X174464285Y-105230476D01*
X174464285Y-105182857D01*
X174511904Y-105087619D01*
X174559523Y-105040000D01*
X174654761Y-104992380D01*
X174845238Y-104992380D01*
X174940476Y-105040000D01*
X174988095Y-105087619D01*
X175035714Y-105182857D01*
X175035714Y-105230476D01*
X174988095Y-105325714D01*
X174940476Y-105373333D01*
X174845238Y-105420952D01*
X174654761Y-105420952D01*
X174559523Y-105468571D01*
X174511904Y-105516190D01*
X174464285Y-105611428D01*
X174464285Y-105801904D01*
X174511904Y-105897142D01*
X174559523Y-105944761D01*
X174654761Y-105992380D01*
X174845238Y-105992380D01*
X174940476Y-105944761D01*
X174988095Y-105897142D01*
X175035714Y-105801904D01*
X175035714Y-105611428D01*
X174988095Y-105516190D01*
X174940476Y-105468571D01*
X174845238Y-105420952D01*
%TO.C,R10*%
X154439080Y-107460457D02*
X153962890Y-107793790D01*
X154439080Y-108031885D02*
X153439080Y-108031885D01*
X153439080Y-107650933D01*
X153486700Y-107555695D01*
X153534319Y-107508076D01*
X153629557Y-107460457D01*
X153772414Y-107460457D01*
X153867652Y-107508076D01*
X153915271Y-107555695D01*
X153962890Y-107650933D01*
X153962890Y-108031885D01*
X154439080Y-106508076D02*
X154439080Y-107079504D01*
X154439080Y-106793790D02*
X153439080Y-106793790D01*
X153581938Y-106889028D01*
X153677176Y-106984266D01*
X153724795Y-107079504D01*
X153439080Y-105889028D02*
X153439080Y-105793790D01*
X153486700Y-105698552D01*
X153534319Y-105650933D01*
X153629557Y-105603314D01*
X153820033Y-105555695D01*
X154058128Y-105555695D01*
X154248604Y-105603314D01*
X154343842Y-105650933D01*
X154391461Y-105698552D01*
X154439080Y-105793790D01*
X154439080Y-105889028D01*
X154391461Y-105984266D01*
X154343842Y-106031885D01*
X154248604Y-106079504D01*
X154058128Y-106127123D01*
X153820033Y-106127123D01*
X153629557Y-106079504D01*
X153534319Y-106031885D01*
X153486700Y-105984266D01*
X153439080Y-105889028D01*
%TO.C,R9*%
X165210633Y-115361180D02*
X164877300Y-114884990D01*
X164639204Y-115361180D02*
X164639204Y-114361180D01*
X165020157Y-114361180D01*
X165115395Y-114408800D01*
X165163014Y-114456419D01*
X165210633Y-114551657D01*
X165210633Y-114694514D01*
X165163014Y-114789752D01*
X165115395Y-114837371D01*
X165020157Y-114884990D01*
X164639204Y-114884990D01*
X165686823Y-115361180D02*
X165877300Y-115361180D01*
X165972538Y-115313561D01*
X166020157Y-115265942D01*
X166115395Y-115123085D01*
X166163014Y-114932609D01*
X166163014Y-114551657D01*
X166115395Y-114456419D01*
X166067776Y-114408800D01*
X165972538Y-114361180D01*
X165782061Y-114361180D01*
X165686823Y-114408800D01*
X165639204Y-114456419D01*
X165591585Y-114551657D01*
X165591585Y-114789752D01*
X165639204Y-114884990D01*
X165686823Y-114932609D01*
X165782061Y-114980228D01*
X165972538Y-114980228D01*
X166067776Y-114932609D01*
X166115395Y-114884990D01*
X166163014Y-114789752D01*
%TO.C,R8*%
X164097633Y-127578580D02*
X163764300Y-127102390D01*
X163526204Y-127578580D02*
X163526204Y-126578580D01*
X163907157Y-126578580D01*
X164002395Y-126626200D01*
X164050014Y-126673819D01*
X164097633Y-126769057D01*
X164097633Y-126911914D01*
X164050014Y-127007152D01*
X164002395Y-127054771D01*
X163907157Y-127102390D01*
X163526204Y-127102390D01*
X164669061Y-127007152D02*
X164573823Y-126959533D01*
X164526204Y-126911914D01*
X164478585Y-126816676D01*
X164478585Y-126769057D01*
X164526204Y-126673819D01*
X164573823Y-126626200D01*
X164669061Y-126578580D01*
X164859538Y-126578580D01*
X164954776Y-126626200D01*
X165002395Y-126673819D01*
X165050014Y-126769057D01*
X165050014Y-126816676D01*
X165002395Y-126911914D01*
X164954776Y-126959533D01*
X164859538Y-127007152D01*
X164669061Y-127007152D01*
X164573823Y-127054771D01*
X164526204Y-127102390D01*
X164478585Y-127197628D01*
X164478585Y-127388104D01*
X164526204Y-127483342D01*
X164573823Y-127530961D01*
X164669061Y-127578580D01*
X164859538Y-127578580D01*
X164954776Y-127530961D01*
X165002395Y-127483342D01*
X165050014Y-127388104D01*
X165050014Y-127197628D01*
X165002395Y-127102390D01*
X164954776Y-127054771D01*
X164859538Y-127007152D01*
%TO.C,R7*%
X166497933Y-118334980D02*
X166164600Y-117858790D01*
X165926504Y-118334980D02*
X165926504Y-117334980D01*
X166307457Y-117334980D01*
X166402695Y-117382600D01*
X166450314Y-117430219D01*
X166497933Y-117525457D01*
X166497933Y-117668314D01*
X166450314Y-117763552D01*
X166402695Y-117811171D01*
X166307457Y-117858790D01*
X165926504Y-117858790D01*
X166831266Y-117334980D02*
X167497933Y-117334980D01*
X167069361Y-118334980D01*
%TO.C,R5*%
X155622380Y-102524166D02*
X155146190Y-102857500D01*
X155622380Y-103095595D02*
X154622380Y-103095595D01*
X154622380Y-102714642D01*
X154670000Y-102619404D01*
X154717619Y-102571785D01*
X154812857Y-102524166D01*
X154955714Y-102524166D01*
X155050952Y-102571785D01*
X155098571Y-102619404D01*
X155146190Y-102714642D01*
X155146190Y-103095595D01*
X154622380Y-101619404D02*
X154622380Y-102095595D01*
X155098571Y-102143214D01*
X155050952Y-102095595D01*
X155003333Y-102000357D01*
X155003333Y-101762261D01*
X155050952Y-101667023D01*
X155098571Y-101619404D01*
X155193809Y-101571785D01*
X155431904Y-101571785D01*
X155527142Y-101619404D01*
X155574761Y-101667023D01*
X155622380Y-101762261D01*
X155622380Y-102000357D01*
X155574761Y-102095595D01*
X155527142Y-102143214D01*
%TO.C,R4*%
X153152380Y-102524166D02*
X152676190Y-102857500D01*
X153152380Y-103095595D02*
X152152380Y-103095595D01*
X152152380Y-102714642D01*
X152200000Y-102619404D01*
X152247619Y-102571785D01*
X152342857Y-102524166D01*
X152485714Y-102524166D01*
X152580952Y-102571785D01*
X152628571Y-102619404D01*
X152676190Y-102714642D01*
X152676190Y-103095595D01*
X152485714Y-101667023D02*
X153152380Y-101667023D01*
X152104761Y-101905119D02*
X152819047Y-102143214D01*
X152819047Y-101524166D01*
%TO.C,R3*%
X175459533Y-138513280D02*
X175126200Y-138037090D01*
X174888104Y-138513280D02*
X174888104Y-137513280D01*
X175269057Y-137513280D01*
X175364295Y-137560900D01*
X175411914Y-137608519D01*
X175459533Y-137703757D01*
X175459533Y-137846614D01*
X175411914Y-137941852D01*
X175364295Y-137989471D01*
X175269057Y-138037090D01*
X174888104Y-138037090D01*
X175792866Y-137513280D02*
X176411914Y-137513280D01*
X176078580Y-137894233D01*
X176221438Y-137894233D01*
X176316676Y-137941852D01*
X176364295Y-137989471D01*
X176411914Y-138084709D01*
X176411914Y-138322804D01*
X176364295Y-138418042D01*
X176316676Y-138465661D01*
X176221438Y-138513280D01*
X175935723Y-138513280D01*
X175840485Y-138465661D01*
X175792866Y-138418042D01*
%TO.C,R2*%
X173495633Y-126818580D02*
X173162300Y-126342390D01*
X172924204Y-126818580D02*
X172924204Y-125818580D01*
X173305157Y-125818580D01*
X173400395Y-125866200D01*
X173448014Y-125913819D01*
X173495633Y-126009057D01*
X173495633Y-126151914D01*
X173448014Y-126247152D01*
X173400395Y-126294771D01*
X173305157Y-126342390D01*
X172924204Y-126342390D01*
X173876585Y-125913819D02*
X173924204Y-125866200D01*
X174019442Y-125818580D01*
X174257538Y-125818580D01*
X174352776Y-125866200D01*
X174400395Y-125913819D01*
X174448014Y-126009057D01*
X174448014Y-126104295D01*
X174400395Y-126247152D01*
X173828966Y-126818580D01*
X174448014Y-126818580D01*
%TO.C,R1*%
X174405433Y-133649180D02*
X174072100Y-133172990D01*
X173834004Y-133649180D02*
X173834004Y-132649180D01*
X174214957Y-132649180D01*
X174310195Y-132696800D01*
X174357814Y-132744419D01*
X174405433Y-132839657D01*
X174405433Y-132982514D01*
X174357814Y-133077752D01*
X174310195Y-133125371D01*
X174214957Y-133172990D01*
X173834004Y-133172990D01*
X175357814Y-133649180D02*
X174786385Y-133649180D01*
X175072100Y-133649180D02*
X175072100Y-132649180D01*
X174976861Y-132792038D01*
X174881623Y-132887276D01*
X174786385Y-132934895D01*
%TO.C,Q1*%
D14*
X164404119Y-115495438D02*
X164356500Y-115590676D01*
X164261261Y-115685914D01*
X164118404Y-115828771D01*
X164070785Y-115924009D01*
X164070785Y-116019247D01*
X164308880Y-115971628D02*
X164261261Y-116066866D01*
X164166023Y-116162104D01*
X163975547Y-116209723D01*
X163642214Y-116209723D01*
X163451738Y-116162104D01*
X163356500Y-116066866D01*
X163308880Y-115971628D01*
X163308880Y-115781152D01*
X163356500Y-115685914D01*
X163451738Y-115590676D01*
X163642214Y-115543057D01*
X163975547Y-115543057D01*
X164166023Y-115590676D01*
X164261261Y-115685914D01*
X164308880Y-115781152D01*
X164308880Y-115971628D01*
X164308880Y-114590676D02*
X164308880Y-115162104D01*
X164308880Y-114876390D02*
X163308880Y-114876390D01*
X163451738Y-114971628D01*
X163546976Y-115066866D01*
X163594595Y-115162104D01*
%TO.C,D7*%
D13*
X163445380Y-134060595D02*
X162445380Y-134060595D01*
X162445380Y-133822500D01*
X162493000Y-133679642D01*
X162588238Y-133584404D01*
X162683476Y-133536785D01*
X162873952Y-133489166D01*
X163016809Y-133489166D01*
X163207285Y-133536785D01*
X163302523Y-133584404D01*
X163397761Y-133679642D01*
X163445380Y-133822500D01*
X163445380Y-134060595D01*
X162445380Y-133155833D02*
X162445380Y-132489166D01*
X163445380Y-132917738D01*
%TO.C,D6*%
X151829504Y-146501580D02*
X151829504Y-145501580D01*
X152067600Y-145501580D01*
X152210457Y-145549200D01*
X152305695Y-145644438D01*
X152353314Y-145739676D01*
X152400933Y-145930152D01*
X152400933Y-146073009D01*
X152353314Y-146263485D01*
X152305695Y-146358723D01*
X152210457Y-146453961D01*
X152067600Y-146501580D01*
X151829504Y-146501580D01*
X153258076Y-145501580D02*
X153067600Y-145501580D01*
X152972361Y-145549200D01*
X152924742Y-145596819D01*
X152829504Y-145739676D01*
X152781885Y-145930152D01*
X152781885Y-146311104D01*
X152829504Y-146406342D01*
X152877123Y-146453961D01*
X152972361Y-146501580D01*
X153162838Y-146501580D01*
X153258076Y-146453961D01*
X153305695Y-146406342D01*
X153353314Y-146311104D01*
X153353314Y-146073009D01*
X153305695Y-145977771D01*
X153258076Y-145930152D01*
X153162838Y-145882533D01*
X152972361Y-145882533D01*
X152877123Y-145930152D01*
X152829504Y-145977771D01*
X152781885Y-146073009D01*
%TO.C,D5*%
X160587880Y-134009795D02*
X159587880Y-134009795D01*
X159587880Y-133771700D01*
X159635500Y-133628842D01*
X159730738Y-133533604D01*
X159825976Y-133485985D01*
X160016452Y-133438366D01*
X160159309Y-133438366D01*
X160349785Y-133485985D01*
X160445023Y-133533604D01*
X160540261Y-133628842D01*
X160587880Y-133771700D01*
X160587880Y-134009795D01*
X159587880Y-132533604D02*
X159587880Y-133009795D01*
X160064071Y-133057414D01*
X160016452Y-133009795D01*
X159968833Y-132914557D01*
X159968833Y-132676461D01*
X160016452Y-132581223D01*
X160064071Y-132533604D01*
X160159309Y-132485985D01*
X160397404Y-132485985D01*
X160492642Y-132533604D01*
X160540261Y-132581223D01*
X160587880Y-132676461D01*
X160587880Y-132914557D01*
X160540261Y-133009795D01*
X160492642Y-133057414D01*
%TO.C,D4*%
X154452380Y-103095595D02*
X153452380Y-103095595D01*
X153452380Y-102857500D01*
X153500000Y-102714642D01*
X153595238Y-102619404D01*
X153690476Y-102571785D01*
X153880952Y-102524166D01*
X154023809Y-102524166D01*
X154214285Y-102571785D01*
X154309523Y-102619404D01*
X154404761Y-102714642D01*
X154452380Y-102857500D01*
X154452380Y-103095595D01*
X153785714Y-101667023D02*
X154452380Y-101667023D01*
X153404761Y-101905119D02*
X154119047Y-102143214D01*
X154119047Y-101524166D01*
%TO.C,D2*%
X160932380Y-103095595D02*
X159932380Y-103095595D01*
X159932380Y-102857500D01*
X159980000Y-102714642D01*
X160075238Y-102619404D01*
X160170476Y-102571785D01*
X160360952Y-102524166D01*
X160503809Y-102524166D01*
X160694285Y-102571785D01*
X160789523Y-102619404D01*
X160884761Y-102714642D01*
X160932380Y-102857500D01*
X160932380Y-103095595D01*
X160027619Y-102143214D02*
X159980000Y-102095595D01*
X159932380Y-102000357D01*
X159932380Y-101762261D01*
X159980000Y-101667023D01*
X160027619Y-101619404D01*
X160122857Y-101571785D01*
X160218095Y-101571785D01*
X160360952Y-101619404D01*
X160932380Y-102190833D01*
X160932380Y-101571785D01*
%TO.C,D1*%
X158212380Y-103095595D02*
X157212380Y-103095595D01*
X157212380Y-102857500D01*
X157260000Y-102714642D01*
X157355238Y-102619404D01*
X157450476Y-102571785D01*
X157640952Y-102524166D01*
X157783809Y-102524166D01*
X157974285Y-102571785D01*
X158069523Y-102619404D01*
X158164761Y-102714642D01*
X158212380Y-102857500D01*
X158212380Y-103095595D01*
X158212380Y-101571785D02*
X158212380Y-102143214D01*
X158212380Y-101857500D02*
X157212380Y-101857500D01*
X157355238Y-101952738D01*
X157450476Y-102047976D01*
X157498095Y-102143214D01*
%TO.C,C9*%
X152409033Y-137376642D02*
X152361414Y-137424261D01*
X152218557Y-137471880D01*
X152123319Y-137471880D01*
X151980461Y-137424261D01*
X151885223Y-137329023D01*
X151837604Y-137233785D01*
X151789985Y-137043309D01*
X151789985Y-136900452D01*
X151837604Y-136709976D01*
X151885223Y-136614738D01*
X151980461Y-136519500D01*
X152123319Y-136471880D01*
X152218557Y-136471880D01*
X152361414Y-136519500D01*
X152409033Y-136567119D01*
X152885223Y-137471880D02*
X153075700Y-137471880D01*
X153170938Y-137424261D01*
X153218557Y-137376642D01*
X153313795Y-137233785D01*
X153361414Y-137043309D01*
X153361414Y-136662357D01*
X153313795Y-136567119D01*
X153266176Y-136519500D01*
X153170938Y-136471880D01*
X152980461Y-136471880D01*
X152885223Y-136519500D01*
X152837604Y-136567119D01*
X152789985Y-136662357D01*
X152789985Y-136900452D01*
X152837604Y-136995690D01*
X152885223Y-137043309D01*
X152980461Y-137090928D01*
X153170938Y-137090928D01*
X153266176Y-137043309D01*
X153313795Y-136995690D01*
X153361414Y-136900452D01*
%TO.C,C8*%
X152357142Y-102524166D02*
X152404761Y-102571785D01*
X152452380Y-102714642D01*
X152452380Y-102809880D01*
X152404761Y-102952738D01*
X152309523Y-103047976D01*
X152214285Y-103095595D01*
X152023809Y-103143214D01*
X151880952Y-103143214D01*
X151690476Y-103095595D01*
X151595238Y-103047976D01*
X151500000Y-102952738D01*
X151452380Y-102809880D01*
X151452380Y-102714642D01*
X151500000Y-102571785D01*
X151547619Y-102524166D01*
X151880952Y-101952738D02*
X151833333Y-102047976D01*
X151785714Y-102095595D01*
X151690476Y-102143214D01*
X151642857Y-102143214D01*
X151547619Y-102095595D01*
X151500000Y-102047976D01*
X151452380Y-101952738D01*
X151452380Y-101762261D01*
X151500000Y-101667023D01*
X151547619Y-101619404D01*
X151642857Y-101571785D01*
X151690476Y-101571785D01*
X151785714Y-101619404D01*
X151833333Y-101667023D01*
X151880952Y-101762261D01*
X151880952Y-101952738D01*
X151928571Y-102047976D01*
X151976190Y-102095595D01*
X152071428Y-102143214D01*
X152261904Y-102143214D01*
X152357142Y-102095595D01*
X152404761Y-102047976D01*
X152452380Y-101952738D01*
X152452380Y-101762261D01*
X152404761Y-101667023D01*
X152357142Y-101619404D01*
X152261904Y-101571785D01*
X152071428Y-101571785D01*
X151976190Y-101619404D01*
X151928571Y-101667023D01*
X151880952Y-101762261D01*
%TO.C,C5*%
X163673933Y-141847042D02*
X163626314Y-141894661D01*
X163483457Y-141942280D01*
X163388219Y-141942280D01*
X163245361Y-141894661D01*
X163150123Y-141799423D01*
X163102504Y-141704185D01*
X163054885Y-141513709D01*
X163054885Y-141370852D01*
X163102504Y-141180376D01*
X163150123Y-141085138D01*
X163245361Y-140989900D01*
X163388219Y-140942280D01*
X163483457Y-140942280D01*
X163626314Y-140989900D01*
X163673933Y-141037519D01*
X164578695Y-140942280D02*
X164102504Y-140942280D01*
X164054885Y-141418471D01*
X164102504Y-141370852D01*
X164197742Y-141323233D01*
X164435838Y-141323233D01*
X164531076Y-141370852D01*
X164578695Y-141418471D01*
X164626314Y-141513709D01*
X164626314Y-141751804D01*
X164578695Y-141847042D01*
X164531076Y-141894661D01*
X164435838Y-141942280D01*
X164197742Y-141942280D01*
X164102504Y-141894661D01*
X164054885Y-141847042D01*
%TO.C,C4*%
X178367833Y-130533342D02*
X178320214Y-130580961D01*
X178177357Y-130628580D01*
X178082119Y-130628580D01*
X177939261Y-130580961D01*
X177844023Y-130485723D01*
X177796404Y-130390485D01*
X177748785Y-130200009D01*
X177748785Y-130057152D01*
X177796404Y-129866676D01*
X177844023Y-129771438D01*
X177939261Y-129676200D01*
X178082119Y-129628580D01*
X178177357Y-129628580D01*
X178320214Y-129676200D01*
X178367833Y-129723819D01*
X179224976Y-129961914D02*
X179224976Y-130628580D01*
X178986880Y-129580961D02*
X178748785Y-130295247D01*
X179367833Y-130295247D01*
%TO.C,C2*%
X159601833Y-138547042D02*
X159554214Y-138594661D01*
X159411357Y-138642280D01*
X159316119Y-138642280D01*
X159173261Y-138594661D01*
X159078023Y-138499423D01*
X159030404Y-138404185D01*
X158982785Y-138213709D01*
X158982785Y-138070852D01*
X159030404Y-137880376D01*
X159078023Y-137785138D01*
X159173261Y-137689900D01*
X159316119Y-137642280D01*
X159411357Y-137642280D01*
X159554214Y-137689900D01*
X159601833Y-137737519D01*
X159982785Y-137737519D02*
X160030404Y-137689900D01*
X160125642Y-137642280D01*
X160363738Y-137642280D01*
X160458976Y-137689900D01*
X160506595Y-137737519D01*
X160554214Y-137832757D01*
X160554214Y-137927995D01*
X160506595Y-138070852D01*
X159935166Y-138642280D01*
X160554214Y-138642280D01*
%TO.C,C1*%
X174346533Y-125679942D02*
X174298914Y-125727561D01*
X174156057Y-125775180D01*
X174060819Y-125775180D01*
X173917961Y-125727561D01*
X173822723Y-125632323D01*
X173775104Y-125537085D01*
X173727485Y-125346609D01*
X173727485Y-125203752D01*
X173775104Y-125013276D01*
X173822723Y-124918038D01*
X173917961Y-124822800D01*
X174060819Y-124775180D01*
X174156057Y-124775180D01*
X174298914Y-124822800D01*
X174346533Y-124870419D01*
X175298914Y-125775180D02*
X174727485Y-125775180D01*
X175013200Y-125775180D02*
X175013200Y-124775180D01*
X174917961Y-124918038D01*
X174822723Y-125013276D01*
X174727485Y-125060895D01*
%TO.C,U4*%
X152087380Y-132396904D02*
X152896904Y-132396904D01*
X152992142Y-132349285D01*
X153039761Y-132301666D01*
X153087380Y-132206428D01*
X153087380Y-132015952D01*
X153039761Y-131920714D01*
X152992142Y-131873095D01*
X152896904Y-131825476D01*
X152087380Y-131825476D01*
X152420714Y-130920714D02*
X153087380Y-130920714D01*
X152039761Y-131158809D02*
X152754047Y-131396904D01*
X152754047Y-130777857D01*
%TO.C,UART*%
X168154761Y-145107380D02*
X168154761Y-145916904D01*
X168202380Y-146012142D01*
X168250000Y-146059761D01*
X168345238Y-146107380D01*
X168535714Y-146107380D01*
X168630952Y-146059761D01*
X168678571Y-146012142D01*
X168726190Y-145916904D01*
X168726190Y-145107380D01*
X169154761Y-145821666D02*
X169630952Y-145821666D01*
X169059523Y-146107380D02*
X169392857Y-145107380D01*
X169726190Y-146107380D01*
X170630952Y-146107380D02*
X170297619Y-145631190D01*
X170059523Y-146107380D02*
X170059523Y-145107380D01*
X170440476Y-145107380D01*
X170535714Y-145155000D01*
X170583333Y-145202619D01*
X170630952Y-145297857D01*
X170630952Y-145440714D01*
X170583333Y-145535952D01*
X170535714Y-145583571D01*
X170440476Y-145631190D01*
X170059523Y-145631190D01*
X170916666Y-145107380D02*
X171488095Y-145107380D01*
X171202380Y-146107380D02*
X171202380Y-145107380D01*
%TO.C,PWR*%
X154616666Y-146107380D02*
X154616666Y-145107380D01*
X154997619Y-145107380D01*
X155092857Y-145155000D01*
X155140476Y-145202619D01*
X155188095Y-145297857D01*
X155188095Y-145440714D01*
X155140476Y-145535952D01*
X155092857Y-145583571D01*
X154997619Y-145631190D01*
X154616666Y-145631190D01*
X155521428Y-145107380D02*
X155759523Y-146107380D01*
X155950000Y-145393095D01*
X156140476Y-146107380D01*
X156378571Y-145107380D01*
X157330952Y-146107380D02*
X156997619Y-145631190D01*
X156759523Y-146107380D02*
X156759523Y-145107380D01*
X157140476Y-145107380D01*
X157235714Y-145155000D01*
X157283333Y-145202619D01*
X157330952Y-145297857D01*
X157330952Y-145440714D01*
X157283333Y-145535952D01*
X157235714Y-145583571D01*
X157140476Y-145631190D01*
X156759523Y-145631190D01*
%TO.C,U2*%
X165902380Y-132351904D02*
X166711904Y-132351904D01*
X166807142Y-132304285D01*
X166854761Y-132256666D01*
X166902380Y-132161428D01*
X166902380Y-131970952D01*
X166854761Y-131875714D01*
X166807142Y-131828095D01*
X166711904Y-131780476D01*
X165902380Y-131780476D01*
X165997619Y-131351904D02*
X165950000Y-131304285D01*
X165902380Y-131209047D01*
X165902380Y-130970952D01*
X165950000Y-130875714D01*
X165997619Y-130828095D01*
X166092857Y-130780476D01*
X166188095Y-130780476D01*
X166330952Y-130828095D01*
X166902380Y-131399523D01*
X166902380Y-130780476D01*
%TO.C,D3*%
X162722380Y-144228095D02*
X161722380Y-144228095D01*
X161722380Y-143990000D01*
X161770000Y-143847142D01*
X161865238Y-143751904D01*
X161960476Y-143704285D01*
X162150952Y-143656666D01*
X162293809Y-143656666D01*
X162484285Y-143704285D01*
X162579523Y-143751904D01*
X162674761Y-143847142D01*
X162722380Y-143990000D01*
X162722380Y-144228095D01*
X161722380Y-143323333D02*
X161722380Y-142704285D01*
X162103333Y-143037619D01*
X162103333Y-142894761D01*
X162150952Y-142799523D01*
X162198571Y-142751904D01*
X162293809Y-142704285D01*
X162531904Y-142704285D01*
X162627142Y-142751904D01*
X162674761Y-142799523D01*
X162722380Y-142894761D01*
X162722380Y-143180476D01*
X162674761Y-143275714D01*
X162627142Y-143323333D01*
%TD*%
M02*
