M48
; DRILL file {KiCad 5.1.6+dfsg1-1~bpo10+1} date Wed Sep  2 15:08:34 2020
; FORMAT={-:-/ absolute / inch / decimal}
; #@! TF.CreationDate,2020-09-02T15:08:34+01:00
; #@! TF.GenerationSoftware,Kicad,Pcbnew,5.1.6+dfsg1-1~bpo10+1
; #@! TF.FileFunction,Plated,1,2,PTH
FMAT,2
INCH
T1C0.0157
T2C0.0236
T3C0.0394
T4C0.0984
T5C0.1063
%
G90
G05
T1
X3.98Y-4.631
X3.998Y-4.939
X4.0472Y-4.693
X4.08Y-5.121
X4.081Y-4.918
X4.0937Y-4.6291
X4.103Y-4.28
X4.1181Y-4.8211
X4.1496Y-4.5512
X4.294Y-5.0915
X4.2972Y-4.6922
X4.3124Y-5.0479
X4.315Y-4.895
X4.3258Y-4.818
X4.3307Y-4.0059
X4.3307Y-4.1831
X4.336Y-4.791
X4.337Y-4.3203
X4.338Y-4.3829
X4.34Y-5.0479
X4.375Y-4.234
X4.375Y-5.051
X4.3752Y-4.9476
X4.407Y-4.681
X4.4094Y-3.9902
X4.4094Y-4.1831
X4.417Y-4.1278
X4.4205Y-4.312
X4.4505Y-4.1139
X4.485Y-4.954
X4.4882Y-3.9902
X4.4882Y-4.1988
X4.498Y-5.1235
X4.5077Y-4.5663
X4.5078Y-4.5998
X4.5183Y-4.5137
X4.5337Y-4.049
X4.539Y-5.3072
X4.5423Y-4.847
X4.548Y-4.3185
X4.5614Y-4.1042
X4.563Y-4.901
X4.5669Y-3.9902
X4.5669Y-4.1988
X4.5838Y-4.7927
X4.5883Y-4.7073
X4.5977Y-4.846
X4.5985Y-5.2665
X4.608Y-4.5315
X4.618Y-4.662
X4.6443Y-4.3258
X4.6457Y-3.9902
X4.6457Y-4.1831
X4.646Y-5.313
X4.651Y-4.656
X4.651Y-4.5108
X4.6549Y-4.6288
X4.6628Y-4.954
X4.6865Y-4.0536
X4.716Y-5.35
X4.7236Y-4.4941
X4.7244Y-3.9902
X4.7244Y-4.1831
X4.7423Y-4.4028
X4.7471Y-4.3217
X4.7634Y-4.8546
X4.7661Y-4.6618
X4.769Y-4.5315
X4.786Y-4.7805
X4.7877Y-4.2702
X4.789Y-4.817
X4.7911Y-4.9732
X4.8031Y-3.9902
X4.8031Y-4.1831
X4.806Y-4.5315
X4.807Y-4.6427
X4.808Y-4.937
X4.816Y-5.034
X4.8247Y-4.3158
X4.829Y-4.4022
X4.8326Y-4.971
X4.8336Y-4.5315
X4.844Y-4.207
X4.845Y-4.6706
X4.856Y-5.095
X4.856Y-5.236
X4.8611Y-4.5315
X4.8802Y-4.9444
X4.8802Y-4.972
X4.8813Y-4.9995
X4.8819Y-4.0059
X4.8819Y-4.1988
X4.8935Y-4.6845
X4.8985Y-5.0405
X4.9003Y-4.4994
X4.905Y-4.9601
X4.922Y-4.014
X4.9245Y-4.0903
X4.931Y-4.9693
X4.935Y-4.5454
X4.935Y-4.6706
X4.9558Y-4.31
X4.9563Y-4.4125
X4.9606Y-4.0059
X4.9606Y-4.1988
X4.9678Y-4.9461
X4.9697Y-4.7013
X4.9705Y-4.2645
X4.9854Y-4.288
X4.987Y-4.5594
X4.991Y-4.751
X4.9938Y-4.2438
X4.9956Y-4.8765
X4.9972Y-4.7124
X4.9987Y-4.9753
X5.001Y-4.791
X5.0165Y-4.5593
X5.024Y-4.7263
X5.026Y-4.9648
X5.0264Y-4.3996
X5.0294Y-4.2698
X5.0362Y-4.3095
X5.037Y-4.352
X5.0394Y-4.0059
X5.0394Y-4.1988
X5.046Y-4.5594
X5.05Y-4.7403
X5.0548Y-4.2593
X5.0585Y-5.057
X5.0637Y-4.3078
X5.0736Y-4.5594
X5.0753Y-4.5287
X5.0779Y-4.8147
X5.1003Y-4.8387
X5.1115Y-5.236
X5.1147Y-4.815
X5.1169Y-4.3122
X5.1181Y-4.0064
X5.1181Y-4.1831
X5.1184Y-4.9922
X5.1192Y-4.4107
X5.1194Y-4.7273
X5.1328Y-4.8663
X5.1423Y-4.8154
X5.148Y-4.2524
X5.153Y-4.704
X5.157Y-4.1596
X5.1647Y-4.7956
X5.1655Y-4.5373
X5.168Y-4.2714
X5.168Y-4.7641
X5.192Y-4.6984
X5.192Y-4.5733
X5.1969Y-4.0059
X5.1969Y-4.1988
X5.206Y-4.8875
X5.2155Y-4.4104
X5.2237Y-4.088
X5.2268Y-4.742
X5.229Y-4.6984
X5.2325Y-5.09
X5.2362Y-4.3049
X5.2427Y-4.5639
X5.2456Y-4.8437
X5.254Y-4.0903
X5.256Y-4.285
X5.259Y-4.497
X5.2595Y-4.8165
X5.2622Y-4.5445
X5.2683Y-4.7482
X5.269Y-4.8978
X5.2702Y-4.7129
X5.2731Y-4.7753
X5.2752Y-4.1992
X5.2756Y-3.9902
X5.2855Y-4.5873
X5.2883Y-4.9965
X5.2897Y-4.949
X5.2963Y-4.091
X5.3022Y-4.8556
X5.3022Y-4.8267
X5.311Y-4.1935
X5.3151Y-4.0703
X5.3253Y-4.7124
X5.3256Y-4.744
X5.3265Y-5.2385
X5.327Y-5.0933
X5.3333Y-4.5703
X5.3496Y-4.4001
X5.3508Y-4.7228
X5.3509Y-4.2591
X5.3543Y-3.9902
X5.3548Y-4.1993
X5.3606Y-4.9741
X5.3625Y-4.6012
X5.3655Y-4.531
X5.3671Y-4.745
X5.3691Y-5.0238
X5.3813Y-4.6717
X5.3865Y-4.9837
X5.3868Y-4.6987
X5.3876Y-4.1396
X5.4045Y-4.2815
X5.4136Y-4.5265
X5.4193Y-4.5615
X5.4229Y-4.4188
X5.428Y-4.9695
X5.4283Y-4.69
X5.432Y-5.0815
X5.4331Y-4.0059
X5.4331Y-4.1988
X5.4334Y-4.6566
X5.4475Y-4.2895
X5.4525Y-4.6768
X5.4538Y-4.849
X5.456Y-4.948
X5.4608Y-4.4972
X5.4608Y-4.583
X5.477Y-4.7285
X5.4783Y-5.0021
X5.48Y-4.2565
X5.4815Y-4.5245
X5.4815Y-4.5595
X5.4881Y-4.5863
X5.4884Y-4.9378
X5.498Y-4.8222
X5.5004Y-4.3032
X5.5051Y-4.5388
X5.5118Y-4.0059
X5.5118Y-4.1988
X5.5235Y-5.244
X5.5242Y-5.1128
X5.5278Y-4.6901
X5.5375Y-4.497
X5.5494Y-4.4189
X5.5725Y-4.5723
X5.574Y-4.8178
X5.577Y-5.015
X5.5795Y-4.7375
X5.5848Y-4.4008
X5.5875Y-5.1045
X5.5906Y-4.0059
X5.5906Y-4.1831
X5.5906Y-4.5118
X5.5931Y-4.6771
X5.594Y-4.2585
X5.5948Y-4.873
X5.5965Y-4.9005
X5.5979Y-4.8013
X5.6134Y-4.5441
X5.6223Y-4.8825
X5.626Y-4.0703
X5.627Y-4.1257
X5.627Y-4.2442
X5.6377Y-4.6434
X5.643Y-4.8178
X5.643Y-4.8643
X5.643Y-5.0175
X5.6558Y-4.3089
X5.6646Y-4.6496
X5.6655Y-4.678
X5.6693Y-3.9902
X5.6693Y-4.1831
X5.6702Y-4.8132
X5.6705Y-4.9535
X5.6853Y-5.0885
X5.6853Y-4.544
X5.6887Y-4.8917
X5.693Y-4.6797
X5.6933Y-4.7915
X5.7026Y-4.0703
X5.7067Y-4.7527
X5.708Y-4.5873
X5.708Y-4.9913
X5.708Y-5.0328
X5.7095Y-4.6567
X5.7187Y-4.8408
X5.7221Y-4.4179
X5.7231Y-4.2779
X5.727Y-5.3072
X5.7288Y-4.8665
X5.748Y-3.9902
X5.7485Y-4.787
X5.7486Y-4.1856
X5.754Y-5.121
X5.7565Y-4.671
X5.7575Y-4.8445
X5.7646Y-4.2779
X5.7646Y-4.4074
X5.768Y-5.3047
X5.785Y-4.5873
X5.7998Y-5.0051
X5.8Y-5.2385
X5.8251Y-5.0223
X5.8268Y-4.0059
X5.8268Y-4.1831
X5.834Y-5.3072
X5.8358Y-4.6568
X5.842Y-5.0795
X5.8589Y-4.6013
X5.8642Y-4.9958
X5.866Y-5.04
X5.877Y-4.643
X5.8803Y-5.0995
X5.8869Y-4.6726
X5.8895Y-5.2925
X5.9115Y-5.2487
X5.9204Y-4.9588
X5.9241Y-4.1655
X5.9262Y-4.849
X5.9265Y-4.781
X5.9287Y-4.2297
X5.9511Y-4.5458
X5.9528Y-4.5963
X5.9654Y-4.9075
X5.9697Y-5.6848
X5.97Y-5.3085
X5.9831Y-5.1454
X5.9856Y-4.7133
X5.9874Y-5.2023
X5.9892Y-4.9523
X5.9915Y-4.768
X5.9918Y-4.7982
X5.9923Y-4.7401
X5.9934Y-5.1753
X5.998Y-3.9929
X5.9985Y-4.0655
X6.0005Y-5.2775
X6.0084Y-5.0949
X6.0086Y-5.0674
X6.011Y-5.3894
X6.012Y-5.42
X6.012Y-5.4506
X6.015Y-5.202
X6.0151Y-5.2516
X6.0309Y-5.0513
X6.0315Y-5.1503
X6.0647Y-4.6051
X6.0768Y-3.9929
X6.088Y-5.352
X6.0896Y-4.7419
X6.0896Y-4.853
X6.0908Y-4.5963
X6.105Y-5.1875
X6.106Y-4.5215
X6.1104Y-5.3156
X6.1135Y-4.912
X6.1329Y-4.5276
X6.134Y-4.826
X6.136Y-4.733
X6.1406Y-5.6055
X6.1406Y-5.6921
X6.1438Y-4.7917
X6.145Y-4.6757
X6.1598Y-4.5215
X6.167Y-4.9085
X6.1694Y-4.8124
X6.174Y-3.9929
X6.193Y-4.8539
X6.224Y-4.1875
X6.2244Y-4.0476
X6.2282Y-5.2588
X6.23Y-4.6185
X6.2307Y-4.9692
X6.2313Y-4.0185
X6.2398Y-5.0398
X6.2408Y-4.9297
X6.2478Y-5.0121
X6.2561Y-5.2213
X6.2562Y-4.9841
X6.261Y-4.7363
X6.2618Y-4.8991
X6.2671Y-5.1726
X6.2756Y-5.0433
X6.2833Y-5.3895
X6.2833Y-5.4205
X6.2885Y-4.7502
X6.2894Y-4.8984
X6.29Y-5.3238
X6.3014Y-5.0609
X6.3038Y-4.6185
X6.3067Y-4.1821
X6.3098Y-5.2263
X6.3107Y-5.1232
X6.311Y-5.0315
X6.3169Y-4.7709
X6.3169Y-4.8992
X6.317Y-5.3525
X6.3208Y-5.4468
X6.3224Y-5.291
X6.3323Y-5.6917
X6.3444Y-4.7709
X6.3444Y-4.898
X6.3543Y-5.0817
X6.3584Y-5.0544
X6.3622Y-5.1539
X6.369Y-5.2095
X6.372Y-4.7709
X6.372Y-4.8979
X6.4005Y-5.0395
X6.404Y-4.8979
X6.4045Y-4.7709
X6.4085Y-4.619
X6.4173Y-5.4706
X6.4228Y-4.9326
X6.4254Y-5.7382
X6.427Y-5.692
X6.428Y-5.336
X6.4695Y-5.7373
X6.4843Y-5.1102
X6.4885Y-4.1089
X6.5245Y-4.762
X6.5323Y-5.146
X6.5374Y-4.1575
X6.5445Y-4.2155
X6.5699Y-4.875
X6.5699Y-4.9085
X6.5738Y-5.147
X6.574Y-4.292
X6.6035Y-4.1613
X6.6103Y-5.2707
X6.6197Y-4.1327
X6.63Y-4.807
X6.633Y-5.6925
X6.6441Y-4.0685
X6.6483Y-5.3774
X6.6494Y-5.4135
X6.6494Y-5.4459
X6.6525Y-5.4803
X6.6546Y-4.864
X6.6615Y-4.9035
X6.6732Y-4.1339
X6.6736Y-5.8402
X6.6882Y-4.8632
X6.6965Y-4.494
X6.6965Y-4.617
X6.716Y-5.149
X6.7165Y-4.7523
X6.7175Y-5.295
X6.7209Y-5.8563
X6.7384Y-4.8611
X6.7384Y-4.974
X6.7415Y-4.5963
X6.7573Y-5.4675
X6.761Y-4.158
X6.7622Y-4.513
X6.7625Y-5.2905
X6.7956Y-5.1866
X6.805Y-4.5963
X6.8087Y-4.513
X6.811Y-5.118
X6.8213Y-4.0685
X6.828Y-5.343
X6.8306Y-5.4635
X6.8365Y-4.639
X6.846Y-4.9835
X6.858Y-3.9975
X6.8775Y-5.3705
X6.8785Y-4.1355
X6.963Y-4.1725
X7.0118Y-5.7717
X7.0258Y-4.6378
X7.0435Y-4.5965
X7.0701Y-4.5087
X7.0906Y-5.7717
X7.1693Y-5.7717
T3
X7.126Y-4.3646
X7.126Y-4.4646
X7.126Y-4.5646
X7.126Y-4.6646
X7.126Y-4.7646
X7.126Y-4.8646
X7.126Y-4.9646
X7.126Y-5.0646
X4.2862Y-4.3516
X4.2862Y-4.4516
X4.3862Y-4.3516
X4.3862Y-4.4516
X4.4862Y-4.3516
X4.4862Y-4.4516
X4.5862Y-4.3516
X4.5862Y-4.4516
X4.6862Y-4.3516
X4.6862Y-4.4516
X4.7862Y-4.3516
X4.7862Y-4.4516
X4.8862Y-4.3516
X4.8862Y-4.4516
X4.9862Y-4.3516
X4.9862Y-4.4516
X5.0862Y-4.3516
X5.0862Y-4.4516
X5.1862Y-4.3516
X5.1862Y-4.4516
X5.2862Y-4.3516
X5.2862Y-4.4516
X5.3862Y-4.3516
X5.3862Y-4.4516
X5.4862Y-4.3516
X5.4862Y-4.4516
X5.5862Y-4.3516
X5.5862Y-4.4516
X5.6862Y-4.3516
X5.6862Y-4.4516
X5.7862Y-4.3516
X5.7862Y-4.4516
X5.8862Y-4.3516
X5.8862Y-4.4516
X5.9862Y-4.3516
X5.9862Y-4.4516
X6.0862Y-4.3516
X6.0862Y-4.4516
X6.1862Y-4.3516
X6.1862Y-4.4516
T4
X6.378Y-4.4016
X4.0945Y-4.4016
T5
X4.0945Y-4.0945
X4.0945Y-5.3346
X7.126Y-4.0945
X7.126Y-5.3346
T2
G00X5.9697Y-5.8118
M15
G01X5.9697Y-5.8551
M16
G05
G00X5.9697Y-5.9862
M15
G01X5.9697Y-6.0098
M16
G05
G00X6.3098Y-5.8118
M15
G01X6.3098Y-5.8551
M16
G05
G00X6.3098Y-5.9862
M15
G01X6.3098Y-6.0098
M16
G05
G00X6.513Y-5.8118
M15
G01X6.513Y-5.8551
M16
G05
G00X6.513Y-5.9862
M15
G01X6.513Y-6.0098
M16
G05
G00X6.8531Y-5.8118
M15
G01X6.8531Y-5.8551
M16
G05
G00X6.8531Y-5.9862
M15
G01X6.8531Y-6.0098
M16
G05
T0
M30
