%TF.GenerationSoftware,KiCad,Pcbnew,5.1.6+dfsg1-1~bpo10+1*%
%TF.CreationDate,2020-09-02T15:08:30+01:00*%
%TF.ProjectId,Ultra96-IO-Mezzanine,556c7472-6139-4362-9d49-4f2d4d657a7a,A*%
%TF.SameCoordinates,Original*%
%TF.FileFunction,Soldermask,Bot*%
%TF.FilePolarity,Negative*%
%FSLAX46Y46*%
G04 Gerber Fmt 4.6, Leading zero omitted, Abs format (unit mm)*
G04 Created by KiCad (PCBNEW 5.1.6+dfsg1-1~bpo10+1) date 2020-09-02 15:08:30*
%MOMM*%
%LPD*%
G01*
G04 APERTURE LIST*
%ADD10C,4.500000*%
%ADD11C,3.000000*%
%ADD12O,1.700000X1.700000*%
%ADD13R,1.700000X1.700000*%
%ADD14C,0.900000*%
%ADD15O,1.000000X2.100000*%
%ADD16C,0.650000*%
%ADD17O,1.000000X1.600000*%
%ADD18C,0.800000*%
%ADD19R,0.500000X2.000000*%
%ADD20C,1.200000*%
%ADD21R,0.890000X3.000000*%
G04 APERTURE END LIST*
D10*
%TO.C,REF\u002A\u002A*%
X181000000Y-104000000D03*
X104000000Y-104000000D03*
X181000000Y-135500000D03*
X104000000Y-135500000D03*
%TD*%
D11*
%TO.C,H1*%
X104000000Y-111800000D03*
%TD*%
D12*
%TO.C,P1*%
X157130000Y-110530000D03*
X157130000Y-113070000D03*
X154590000Y-110530000D03*
X154590000Y-113070000D03*
X152050000Y-110530000D03*
X152050000Y-113070000D03*
X149510000Y-110530000D03*
X149510000Y-113070000D03*
X146970000Y-110530000D03*
X146970000Y-113070000D03*
X144430000Y-110530000D03*
X144430000Y-113070000D03*
X141890000Y-110530000D03*
X141890000Y-113070000D03*
X139350000Y-110530000D03*
X139350000Y-113070000D03*
X136810000Y-110530000D03*
X136810000Y-113070000D03*
X134270000Y-110530000D03*
X134270000Y-113070000D03*
X131730000Y-110530000D03*
X131730000Y-113070000D03*
X129190000Y-110530000D03*
X129190000Y-113070000D03*
X126650000Y-110530000D03*
X126650000Y-113070000D03*
X124110000Y-110530000D03*
X124110000Y-113070000D03*
X121570000Y-110530000D03*
X121570000Y-113070000D03*
X119030000Y-110530000D03*
X119030000Y-113070000D03*
X116490000Y-110530000D03*
X116490000Y-113070000D03*
X113950000Y-110530000D03*
X113950000Y-113070000D03*
X111410000Y-110530000D03*
X111410000Y-113070000D03*
X108870000Y-110530000D03*
D13*
X108870000Y-113070000D03*
%TD*%
D14*
%TO.C,5v|3v3|1v8*%
X167760000Y-101580000D03*
X172760000Y-101580000D03*
%TD*%
D12*
%TO.C,J2*%
X181000000Y-128640000D03*
X181000000Y-126100000D03*
X181000000Y-123560000D03*
X181000000Y-121020000D03*
X181000000Y-118480000D03*
X181000000Y-115940000D03*
X181000000Y-113400000D03*
D13*
X181000000Y-110860000D03*
%TD*%
D15*
%TO.C,UART*%
X174070000Y-148170000D03*
X165430000Y-148170000D03*
D16*
X166860000Y-148700000D03*
D17*
X165430000Y-152350000D03*
D16*
X172640000Y-148700000D03*
D17*
X174070000Y-152350000D03*
%TD*%
D18*
%TO.C,P2*%
X118650000Y-138550000D03*
D19*
X131550000Y-140750000D03*
X131550000Y-136350000D03*
X132350000Y-136350000D03*
X132350000Y-140750000D03*
X130750000Y-140750000D03*
X130750000Y-136350000D03*
X129950000Y-136350000D03*
X129950000Y-140750000D03*
X129150000Y-136350000D03*
X129150000Y-140750000D03*
X128350000Y-140750000D03*
X128350000Y-136350000D03*
X127550000Y-140750000D03*
X127550000Y-136350000D03*
X126750000Y-136350000D03*
X126750000Y-140750000D03*
X125950000Y-136350000D03*
X125950000Y-140750000D03*
X125150000Y-136350000D03*
X125150000Y-140750000D03*
X124350000Y-136350000D03*
X124350000Y-140750000D03*
X123550000Y-140750000D03*
X123550000Y-136350000D03*
X122750000Y-140750000D03*
X122750000Y-136350000D03*
X121950000Y-140750000D03*
X121950000Y-136350000D03*
X121150000Y-136350000D03*
X121150000Y-140750000D03*
D20*
X146850000Y-138550000D03*
D19*
X139550000Y-140750000D03*
X144350000Y-140750000D03*
X134750000Y-136350000D03*
X140350000Y-136350000D03*
X142750000Y-136350000D03*
X144350000Y-136350000D03*
X141150000Y-136350000D03*
X140350000Y-140750000D03*
X138750000Y-140750000D03*
X138750000Y-136350000D03*
X142750000Y-140750000D03*
X143550000Y-136350000D03*
X133150000Y-140750000D03*
X135550000Y-136350000D03*
X134750000Y-140750000D03*
X141950000Y-140750000D03*
X135550000Y-140750000D03*
X137150000Y-140750000D03*
X141150000Y-140750000D03*
X133950000Y-140750000D03*
X139550000Y-136350000D03*
X136350000Y-136350000D03*
X137150000Y-136350000D03*
X133150000Y-136350000D03*
X136350000Y-140750000D03*
X137950000Y-140750000D03*
X137950000Y-136350000D03*
X133950000Y-136350000D03*
X141950000Y-136350000D03*
X143550000Y-140750000D03*
%TD*%
D11*
%TO.C,H2*%
X162000000Y-111800000D03*
%TD*%
D15*
%TO.C,PWR*%
X160270000Y-148170000D03*
X151630000Y-148170000D03*
D16*
X153060000Y-148700000D03*
D17*
X151630000Y-152350000D03*
D16*
X158840000Y-148700000D03*
D17*
X160270000Y-152350000D03*
%TD*%
D21*
%TO.C,P1*%
X148000000Y-106250000D03*
X146000000Y-106250000D03*
X144000000Y-106250000D03*
X142000000Y-106250000D03*
X140000000Y-106250000D03*
X138000000Y-106250000D03*
X136000000Y-106250000D03*
X134000000Y-106250000D03*
X132000000Y-106250000D03*
X130000000Y-106250000D03*
X128000000Y-106250000D03*
X126000000Y-106250000D03*
X124000000Y-106250000D03*
X122000000Y-106250000D03*
X120000000Y-106250000D03*
X118000000Y-106250000D03*
X116000000Y-106250000D03*
X114000000Y-106250000D03*
X112000000Y-106250000D03*
X148000000Y-101750000D03*
X146000000Y-101750000D03*
X144000000Y-101750000D03*
X142000000Y-101750000D03*
X140000000Y-101750000D03*
X138000000Y-101750000D03*
X136000000Y-101750000D03*
X134000000Y-101750000D03*
X132000000Y-101750000D03*
X130000000Y-101750000D03*
X128000000Y-101750000D03*
X126000000Y-101750000D03*
X124000000Y-101750000D03*
X122000000Y-101750000D03*
X120000000Y-101750000D03*
X118000000Y-101750000D03*
X116000000Y-101750000D03*
X114000000Y-101750000D03*
X112000000Y-101750000D03*
D20*
X111000000Y-104000000D03*
D21*
X110000000Y-101750000D03*
X110000000Y-106250000D03*
D20*
X147000000Y-104000000D03*
%TD*%
M02*
