%TF.GenerationSoftware,KiCad,Pcbnew,5.1.6+dfsg1-1~bpo10+1*%
%TF.CreationDate,2020-08-24T18:13:06+01:00*%
%TF.ProjectId,Ultra96-IO-Mezzanine,556c7472-6139-4362-9d49-4f2d4d657a7a,A*%
%TF.SameCoordinates,Original*%
%TF.FileFunction,Legend,Top*%
%TF.FilePolarity,Positive*%
%FSLAX46Y46*%
G04 Gerber Fmt 4.6, Leading zero omitted, Abs format (unit mm)*
G04 Created by KiCad (PCBNEW 5.1.6+dfsg1-1~bpo10+1) date 2020-08-24 18:13:06*
%MOMM*%
%LPD*%
G01*
G04 APERTURE LIST*
%ADD10C,0.120000*%
%ADD11C,0.200000*%
%ADD12C,0.127000*%
%ADD13C,0.150000*%
G04 APERTURE END LIST*
D10*
%TO.C,REF\u002A\u002A*%
X106286000Y-135500000D02*
G75*
G03*
X106286000Y-135500000I-2286000J0D01*
G01*
X183286000Y-135500000D02*
G75*
G03*
X183286000Y-135500000I-2286000J0D01*
G01*
X106286000Y-104000000D02*
G75*
G03*
X106286000Y-104000000I-2286000J0D01*
G01*
X183286000Y-104000000D02*
G75*
G03*
X183286000Y-104000000I-2286000J0D01*
G01*
%TO.C,P1*%
X158460000Y-114400000D02*
X158460000Y-109200000D01*
X110140000Y-114400000D02*
X158460000Y-114400000D01*
X107540000Y-109200000D02*
X158460000Y-109200000D01*
X110140000Y-114400000D02*
X110140000Y-111800000D01*
X110140000Y-111800000D02*
X107540000Y-111800000D01*
X107540000Y-111800000D02*
X107540000Y-109200000D01*
X108870000Y-114400000D02*
X107540000Y-114400000D01*
X107540000Y-114400000D02*
X107540000Y-113070000D01*
D11*
%TO.C,U7*%
X146691600Y-125645400D02*
G75*
G03*
X146691600Y-125645400I-100000J0D01*
G01*
D12*
X150901600Y-121300400D02*
X150901600Y-122400400D01*
X146301600Y-121300400D02*
X146301600Y-122084400D01*
X150901600Y-124900400D02*
X150901600Y-123800400D01*
X146301600Y-124900400D02*
X146301600Y-124116400D01*
X150901600Y-121300400D02*
X150801600Y-121300400D01*
X146301600Y-121300400D02*
X146401600Y-121300400D01*
X150901600Y-124900400D02*
X150801600Y-124900400D01*
X146301600Y-124900400D02*
X146401600Y-124900400D01*
D11*
%TO.C,U6*%
X134691600Y-125645400D02*
G75*
G03*
X134691600Y-125645400I-100000J0D01*
G01*
D12*
X138901600Y-121300400D02*
X138901600Y-122400400D01*
X134301600Y-121300400D02*
X134301600Y-122084400D01*
X138901600Y-124900400D02*
X138901600Y-123800400D01*
X134301600Y-124900400D02*
X134301600Y-124116400D01*
X138901600Y-121300400D02*
X138801600Y-121300400D01*
X134301600Y-121300400D02*
X134401600Y-121300400D01*
X138901600Y-124900400D02*
X138801600Y-124900400D01*
X134301600Y-124900400D02*
X134401600Y-124900400D01*
D11*
%TO.C,U5*%
X122691600Y-125645400D02*
G75*
G03*
X122691600Y-125645400I-100000J0D01*
G01*
D12*
X126901600Y-121300400D02*
X126901600Y-122400400D01*
X122301600Y-121300400D02*
X122301600Y-122084400D01*
X126901600Y-124900400D02*
X126901600Y-123800400D01*
X122301600Y-124900400D02*
X122301600Y-124116400D01*
X126901600Y-121300400D02*
X126801600Y-121300400D01*
X122301600Y-121300400D02*
X122401600Y-121300400D01*
X126901600Y-124900400D02*
X126801600Y-124900400D01*
X122301600Y-124900400D02*
X122401600Y-124900400D01*
D11*
%TO.C,U3*%
X110691600Y-125645400D02*
G75*
G03*
X110691600Y-125645400I-100000J0D01*
G01*
D12*
X114901600Y-121300400D02*
X114901600Y-122400400D01*
X110301600Y-121300400D02*
X110301600Y-122084400D01*
X114901600Y-124900400D02*
X114901600Y-123800400D01*
X110301600Y-124900400D02*
X110301600Y-124116400D01*
X114901600Y-121300400D02*
X114801600Y-121300400D01*
X110301600Y-121300400D02*
X110401600Y-121300400D01*
X114901600Y-124900400D02*
X114801600Y-124900400D01*
X110301600Y-124900400D02*
X110401600Y-124900400D01*
D10*
%TO.C,RST*%
X105790000Y-127580000D02*
X105790000Y-127680000D01*
X101390000Y-129380000D02*
X105790000Y-129380000D01*
X105790000Y-125880000D02*
X101390000Y-125880000D01*
X101390000Y-127580000D02*
X101390000Y-127680000D01*
%TO.C,PWR*%
X105860000Y-121330000D02*
X105860000Y-121430000D01*
X101460000Y-123130000D02*
X105860000Y-123130000D01*
X105860000Y-119630000D02*
X101460000Y-119630000D01*
X101460000Y-121330000D02*
X101460000Y-121430000D01*
%TO.C,5v|3v3|1v8*%
X165310000Y-101190000D02*
X165310000Y-101980000D01*
X175210000Y-101980000D02*
X175210000Y-101190000D01*
X171110000Y-102980000D02*
X169410000Y-102980000D01*
X174610000Y-100190000D02*
X165910000Y-100190000D01*
X169610000Y-98890000D02*
X169610000Y-100190000D01*
X169810000Y-98690000D02*
X170710000Y-98690000D01*
X170910000Y-100190000D02*
X170910000Y-98890000D01*
X169610000Y-98890000D02*
X169810000Y-98690000D01*
X170910000Y-98890000D02*
X170710000Y-98690000D01*
X168110000Y-102980000D02*
X167910000Y-102980000D01*
X172610000Y-102980000D02*
X172410000Y-102980000D01*
X166610000Y-102980000D02*
X165910000Y-102980000D01*
X174610000Y-102980000D02*
X173910000Y-102980000D01*
%TO.C,R10*%
X151626700Y-106559022D02*
X151626700Y-107076178D01*
X153046700Y-106559022D02*
X153046700Y-107076178D01*
%TO.C,R9*%
X165635878Y-112548800D02*
X165118722Y-112548800D01*
X165635878Y-113968800D02*
X165118722Y-113968800D01*
%TO.C,R8*%
X164522878Y-124766200D02*
X164005722Y-124766200D01*
X164522878Y-126186200D02*
X164005722Y-126186200D01*
%TO.C,R7*%
X166406022Y-120242600D02*
X166923178Y-120242600D01*
X166406022Y-118822600D02*
X166923178Y-118822600D01*
%TO.C,R6*%
X158921122Y-118020100D02*
X159438278Y-118020100D01*
X158921122Y-116600100D02*
X159438278Y-116600100D01*
%TO.C,R5*%
X157530000Y-102616078D02*
X157530000Y-102098922D01*
X156110000Y-102616078D02*
X156110000Y-102098922D01*
%TO.C,R4*%
X155060000Y-102616078D02*
X155060000Y-102098922D01*
X153640000Y-102616078D02*
X153640000Y-102098922D01*
%TO.C,R3*%
X175884778Y-135700900D02*
X175367622Y-135700900D01*
X175884778Y-137120900D02*
X175367622Y-137120900D01*
%TO.C,R2*%
X173403722Y-128726200D02*
X173920878Y-128726200D01*
X173403722Y-127306200D02*
X173920878Y-127306200D01*
%TO.C,R1*%
X174830678Y-130836800D02*
X174313522Y-130836800D01*
X174830678Y-132256800D02*
X174313522Y-132256800D01*
D11*
%TO.C,Q1*%
X165711500Y-118785200D02*
G75*
G03*
X165711500Y-118785200I-100000J0D01*
G01*
D12*
X168300000Y-114985200D02*
X168300000Y-117985200D01*
X164923000Y-114985200D02*
X164923000Y-117985200D01*
D10*
%TO.C,D7*%
X165603000Y-135007500D02*
X165603000Y-132322500D01*
X163683000Y-135007500D02*
X165603000Y-135007500D01*
X163683000Y-132322500D02*
X163683000Y-135007500D01*
%TO.C,D6*%
X154252600Y-143439200D02*
X151567600Y-143439200D01*
X154252600Y-145359200D02*
X154252600Y-143439200D01*
X151567600Y-145359200D02*
X154252600Y-145359200D01*
%TO.C,D5*%
X162745500Y-134956700D02*
X162745500Y-132271700D01*
X160825500Y-134956700D02*
X162745500Y-134956700D01*
X160825500Y-132271700D02*
X160825500Y-134956700D01*
%TO.C,D4*%
X151390000Y-100672500D02*
X151390000Y-103357500D01*
X153310000Y-100672500D02*
X151390000Y-100672500D01*
X153310000Y-103357500D02*
X153310000Y-100672500D01*
%TO.C,D2*%
X163090000Y-104042500D02*
X163090000Y-101357500D01*
X161170000Y-104042500D02*
X163090000Y-104042500D01*
X161170000Y-101357500D02*
X161170000Y-104042500D01*
%TO.C,D1*%
X160370000Y-104042500D02*
X160370000Y-101357500D01*
X158450000Y-104042500D02*
X160370000Y-104042500D01*
X158450000Y-101357500D02*
X158450000Y-104042500D01*
%TO.C,C9*%
X152834278Y-134659500D02*
X152317122Y-134659500D01*
X152834278Y-136079500D02*
X152317122Y-136079500D01*
%TO.C,C8*%
X149640000Y-102098922D02*
X149640000Y-102616078D01*
X151060000Y-102098922D02*
X151060000Y-102616078D01*
%TO.C,C7*%
X155980400Y-125973778D02*
X155980400Y-125456622D01*
X154560400Y-125973778D02*
X154560400Y-125456622D01*
%TO.C,C6*%
X148681378Y-128817500D02*
X148164222Y-128817500D01*
X148681378Y-130237500D02*
X148164222Y-130237500D01*
%TO.C,C5*%
X165368922Y-136680000D02*
X165886078Y-136680000D01*
X165368922Y-135260000D02*
X165886078Y-135260000D01*
%TO.C,C4*%
X178275922Y-132536200D02*
X178793078Y-132536200D01*
X178275922Y-131116200D02*
X178793078Y-131116200D01*
%TO.C,C3*%
X103250000Y-116378922D02*
X103250000Y-116896078D01*
X104670000Y-116378922D02*
X104670000Y-116896078D01*
%TO.C,C2*%
X156653922Y-139570000D02*
X157171078Y-139570000D01*
X156653922Y-138150000D02*
X157171078Y-138150000D01*
%TO.C,C1*%
X174771778Y-122962800D02*
X174254622Y-122962800D01*
X174771778Y-124382800D02*
X174254622Y-124382800D01*
%TO.C,J2*%
X179670000Y-129970000D02*
X182330000Y-129970000D01*
X179670000Y-112130000D02*
X179670000Y-129970000D01*
X182330000Y-112130000D02*
X182330000Y-129970000D01*
X179670000Y-112130000D02*
X182330000Y-112130000D01*
X179670000Y-110860000D02*
X179670000Y-109530000D01*
X179670000Y-109530000D02*
X181000000Y-109530000D01*
%TO.C,U4*%
X153845000Y-130000000D02*
X153845000Y-129525000D01*
X153845000Y-129525000D02*
X154320000Y-129525000D01*
X158065000Y-133270000D02*
X158065000Y-133745000D01*
X158065000Y-133745000D02*
X157590000Y-133745000D01*
X158065000Y-130000000D02*
X158065000Y-129525000D01*
X158065000Y-129525000D02*
X157590000Y-129525000D01*
X153845000Y-133270000D02*
X153845000Y-133745000D01*
%TO.C,UART*%
X165050000Y-153300000D02*
X165050000Y-155200000D01*
X165050000Y-149400000D02*
X165050000Y-151400000D01*
X174450000Y-153300000D02*
X174450000Y-155200000D01*
X174450000Y-149400000D02*
X174450000Y-151400000D01*
X165050000Y-155200000D02*
X174450000Y-155200000D01*
D13*
%TO.C,P3*%
X109250000Y-108000000D02*
X148750000Y-108000000D01*
X148750000Y-100000000D02*
X109250000Y-100000000D01*
X109250000Y-100000000D02*
X109250000Y-108000000D01*
X148750000Y-100000000D02*
X148750000Y-108000000D01*
D10*
%TO.C,PWR*%
X151250000Y-153300000D02*
X151250000Y-155200000D01*
X151250000Y-149400000D02*
X151250000Y-151400000D01*
X160650000Y-153300000D02*
X160650000Y-155200000D01*
X160650000Y-149400000D02*
X160650000Y-151400000D01*
X151250000Y-155200000D02*
X160650000Y-155200000D01*
%TO.C,U2*%
X167640000Y-129955000D02*
X167640000Y-129480000D01*
X167640000Y-129480000D02*
X168115000Y-129480000D01*
X171860000Y-133225000D02*
X171860000Y-133700000D01*
X171860000Y-133700000D02*
X171385000Y-133700000D01*
X171860000Y-129955000D02*
X171860000Y-129480000D01*
X171860000Y-129480000D02*
X171385000Y-129480000D01*
X167640000Y-133225000D02*
X167640000Y-133700000D01*
%TO.C,D3*%
X155370000Y-142280000D02*
X155370000Y-144680000D01*
X158470000Y-144680000D02*
X158470000Y-141730000D01*
%TO.C,RST*%
D13*
X102892380Y-130682380D02*
X102559047Y-130206190D01*
X102320952Y-130682380D02*
X102320952Y-129682380D01*
X102701904Y-129682380D01*
X102797142Y-129730000D01*
X102844761Y-129777619D01*
X102892380Y-129872857D01*
X102892380Y-130015714D01*
X102844761Y-130110952D01*
X102797142Y-130158571D01*
X102701904Y-130206190D01*
X102320952Y-130206190D01*
X103273333Y-130634761D02*
X103416190Y-130682380D01*
X103654285Y-130682380D01*
X103749523Y-130634761D01*
X103797142Y-130587142D01*
X103844761Y-130491904D01*
X103844761Y-130396666D01*
X103797142Y-130301428D01*
X103749523Y-130253809D01*
X103654285Y-130206190D01*
X103463809Y-130158571D01*
X103368571Y-130110952D01*
X103320952Y-130063333D01*
X103273333Y-129968095D01*
X103273333Y-129872857D01*
X103320952Y-129777619D01*
X103368571Y-129730000D01*
X103463809Y-129682380D01*
X103701904Y-129682380D01*
X103844761Y-129730000D01*
X104130476Y-129682380D02*
X104701904Y-129682380D01*
X104416190Y-130682380D02*
X104416190Y-129682380D01*
%TO.C,PWR*%
X102176666Y-124432380D02*
X102176666Y-123432380D01*
X102557619Y-123432380D01*
X102652857Y-123480000D01*
X102700476Y-123527619D01*
X102748095Y-123622857D01*
X102748095Y-123765714D01*
X102700476Y-123860952D01*
X102652857Y-123908571D01*
X102557619Y-123956190D01*
X102176666Y-123956190D01*
X103081428Y-123432380D02*
X103319523Y-124432380D01*
X103510000Y-123718095D01*
X103700476Y-124432380D01*
X103938571Y-123432380D01*
X104890952Y-124432380D02*
X104557619Y-123956190D01*
X104319523Y-124432380D02*
X104319523Y-123432380D01*
X104700476Y-123432380D01*
X104795714Y-123480000D01*
X104843333Y-123527619D01*
X104890952Y-123622857D01*
X104890952Y-123765714D01*
X104843333Y-123860952D01*
X104795714Y-123908571D01*
X104700476Y-123956190D01*
X104319523Y-123956190D01*
%TO.C,5v|3v3|1v8*%
X166988095Y-104992380D02*
X166511904Y-104992380D01*
X166464285Y-105468571D01*
X166511904Y-105420952D01*
X166607142Y-105373333D01*
X166845238Y-105373333D01*
X166940476Y-105420952D01*
X166988095Y-105468571D01*
X167035714Y-105563809D01*
X167035714Y-105801904D01*
X166988095Y-105897142D01*
X166940476Y-105944761D01*
X166845238Y-105992380D01*
X166607142Y-105992380D01*
X166511904Y-105944761D01*
X166464285Y-105897142D01*
X167369047Y-105325714D02*
X167607142Y-105992380D01*
X167845238Y-105325714D01*
X168464285Y-106325714D02*
X168464285Y-104897142D01*
X169083333Y-104992380D02*
X169702380Y-104992380D01*
X169369047Y-105373333D01*
X169511904Y-105373333D01*
X169607142Y-105420952D01*
X169654761Y-105468571D01*
X169702380Y-105563809D01*
X169702380Y-105801904D01*
X169654761Y-105897142D01*
X169607142Y-105944761D01*
X169511904Y-105992380D01*
X169226190Y-105992380D01*
X169130952Y-105944761D01*
X169083333Y-105897142D01*
X170035714Y-105325714D02*
X170273809Y-105992380D01*
X170511904Y-105325714D01*
X170797619Y-104992380D02*
X171416666Y-104992380D01*
X171083333Y-105373333D01*
X171226190Y-105373333D01*
X171321428Y-105420952D01*
X171369047Y-105468571D01*
X171416666Y-105563809D01*
X171416666Y-105801904D01*
X171369047Y-105897142D01*
X171321428Y-105944761D01*
X171226190Y-105992380D01*
X170940476Y-105992380D01*
X170845238Y-105944761D01*
X170797619Y-105897142D01*
X172083333Y-106325714D02*
X172083333Y-104897142D01*
X173321428Y-105992380D02*
X172750000Y-105992380D01*
X173035714Y-105992380D02*
X173035714Y-104992380D01*
X172940476Y-105135238D01*
X172845238Y-105230476D01*
X172750000Y-105278095D01*
X173654761Y-105325714D02*
X173892857Y-105992380D01*
X174130952Y-105325714D01*
X174654761Y-105420952D02*
X174559523Y-105373333D01*
X174511904Y-105325714D01*
X174464285Y-105230476D01*
X174464285Y-105182857D01*
X174511904Y-105087619D01*
X174559523Y-105040000D01*
X174654761Y-104992380D01*
X174845238Y-104992380D01*
X174940476Y-105040000D01*
X174988095Y-105087619D01*
X175035714Y-105182857D01*
X175035714Y-105230476D01*
X174988095Y-105325714D01*
X174940476Y-105373333D01*
X174845238Y-105420952D01*
X174654761Y-105420952D01*
X174559523Y-105468571D01*
X174511904Y-105516190D01*
X174464285Y-105611428D01*
X174464285Y-105801904D01*
X174511904Y-105897142D01*
X174559523Y-105944761D01*
X174654761Y-105992380D01*
X174845238Y-105992380D01*
X174940476Y-105944761D01*
X174988095Y-105897142D01*
X175035714Y-105801904D01*
X175035714Y-105611428D01*
X174988095Y-105516190D01*
X174940476Y-105468571D01*
X174845238Y-105420952D01*
%TO.C,UART*%
X168154761Y-145107380D02*
X168154761Y-145916904D01*
X168202380Y-146012142D01*
X168250000Y-146059761D01*
X168345238Y-146107380D01*
X168535714Y-146107380D01*
X168630952Y-146059761D01*
X168678571Y-146012142D01*
X168726190Y-145916904D01*
X168726190Y-145107380D01*
X169154761Y-145821666D02*
X169630952Y-145821666D01*
X169059523Y-146107380D02*
X169392857Y-145107380D01*
X169726190Y-146107380D01*
X170630952Y-146107380D02*
X170297619Y-145631190D01*
X170059523Y-146107380D02*
X170059523Y-145107380D01*
X170440476Y-145107380D01*
X170535714Y-145155000D01*
X170583333Y-145202619D01*
X170630952Y-145297857D01*
X170630952Y-145440714D01*
X170583333Y-145535952D01*
X170535714Y-145583571D01*
X170440476Y-145631190D01*
X170059523Y-145631190D01*
X170916666Y-145107380D02*
X171488095Y-145107380D01*
X171202380Y-146107380D02*
X171202380Y-145107380D01*
%TO.C,PWR*%
X154616666Y-146107380D02*
X154616666Y-145107380D01*
X154997619Y-145107380D01*
X155092857Y-145155000D01*
X155140476Y-145202619D01*
X155188095Y-145297857D01*
X155188095Y-145440714D01*
X155140476Y-145535952D01*
X155092857Y-145583571D01*
X154997619Y-145631190D01*
X154616666Y-145631190D01*
X155521428Y-145107380D02*
X155759523Y-146107380D01*
X155950000Y-145393095D01*
X156140476Y-146107380D01*
X156378571Y-145107380D01*
X157330952Y-146107380D02*
X156997619Y-145631190D01*
X156759523Y-146107380D02*
X156759523Y-145107380D01*
X157140476Y-145107380D01*
X157235714Y-145155000D01*
X157283333Y-145202619D01*
X157330952Y-145297857D01*
X157330952Y-145440714D01*
X157283333Y-145535952D01*
X157235714Y-145583571D01*
X157140476Y-145631190D01*
X156759523Y-145631190D01*
%TD*%
M02*
